<svg width="35" height="35" viewBox="0 0 35 35" xmlns="http://www.w3.org/2000/svg">
    <path d="M21.875 0c3.866 0 7 3.085 7 6.89 0 1.448-.263 3.457-.874 5.39 2.115.772 3.758 2.017 4.94 3.668 1.481 2.067 2.059 4.467 2.059 6.8a1.75 1.75 0 0 1-.904 1.53c-.682.377-1.863.913-3.446 1.441a27.916 27.916 0 0 1-3.6.943c.624 1.37.95 2.763.95 3.96a1.75 1.75 0 0 1-1 1.58c-.77.365-2.1.89-3.862 1.412C20.208 34.48 17.12 35 14 35s-6.208-.52-9.138-1.386C3.1 33.093 1.77 32.567 1 32.202c-.61-.29-.999-.905-.999-1.58 0-2.123 1.006-4.835 2.876-6.955a12.232 12.232 0 0 1 4.351-3.138c-.773-2.32-1.102-4.783-1.102-6.53a7.875 7.875 0 0 1 8.787-7.823C15.275 2.706 18.254 0 21.875 0zM20.77 20.534a12.281 12.281 0 0 1 4.148 2.922 23.92 23.92 0 0 0 4.623-1.056 22.76 22.76 0 0 0 1.9-.727c-.145-1.31-.567-2.6-1.346-3.687-.806-1.126-1.96-1.985-3.547-2.512-1.093 1.693-2.619 2.899-4.674 2.899-.173 0-.341-.009-.506-.025a21.332 21.332 0 0 1-.598 2.186zm1.104-5.66c1.652 0 3.5-4.018 3.5-7.984 0-1.86-1.555-3.39-3.5-3.39s-3.5 1.53-3.5 3.39c0 .19.004.38.012.569a7.866 7.866 0 0 1 3.488 6.54c0 .274-.008.567-.025.874h.025zM5.5 25.982c-.96 1.088-1.594 2.402-1.86 3.53.665.253 1.407.506 2.213.745 2.63.777 5.393 1.242 8.146 1.242 2.753 0 5.517-.465 8.146-1.242.805-.238 1.546-.49 2.21-.744-.268-1.119-.901-2.43-1.858-3.518a8.8 8.8 0 0 0-3.181-2.28c-1.234 1.983-2.968 3.406-5.317 3.406-2.351 0-4.086-1.425-5.32-3.411-1.285.55-2.338 1.319-3.18 2.272zM14 23.622c2.178 0 4.375-4.853 4.375-9.624a4.375 4.375 0 0 0-8.75 0c0 4.771 2.197 9.624 4.375 9.624z" fill="#3458A1" fill-rule="evenodd"/>
</svg>
