<svg width="70" height="70" viewBox="0 0 70 70" xmlns="http://www.w3.org/2000/svg" xmlns:xlink="http://www.w3.org/1999/xlink">
    <defs>
        <filter x="-46.6%" y="-39.8%" width="197.7%" height="197.7%" filterUnits="objectBoundingBox" id="42s7ab3xxa">
            <feMorphology radius="2" operator="dilate" in="SourceAlpha" result="shadowSpreadOuter1"/>
            <feOffset dx="1" dy="4" in="shadowSpreadOuter1" result="shadowOffsetOuter1"/>
            <feGaussianBlur stdDeviation="4.5" in="shadowOffsetOuter1" result="shadowBlurOuter1"/>
            <feColorMatrix values="0 0 0 0 0 0 0 0 0 0 0 0 0 0 0 0 0 0 0.05 0" in="shadowBlurOuter1"/>
        </filter>
        <rect id="4vnfx4k3sb" x="0" y="0" width="44" height="44" rx="8"/>
    </defs>
    <g fill="none" fill-rule="evenodd">
        <g transform="translate(12 9)">
            <use fill="#000" filter="url(#42s7ab3xxa)" xlink:href="#4vnfx4k3sb"/>
            <use fill="#FFF" xlink:href="#4vnfx4k3sb"/>
        </g>
        <path d="M26.1 33.6v2.1h16.8v-2.1h-7.35a1.05 1.05 0 0 1-2.1.001L26.1 33.6zm16.8-10.5H26.1v8.4h16.8v-8.4zm-5.6 16.8h2.447a1.051 1.051 0 1 1 0 2.1H29.253a1.051 1.051 0 1 1 0-2.1H31.7l.35-2.1h-7.001c-.58 0-1.049-.467-1.049-1.05v-14.7c0-.58.468-1.05 1.049-1.05H43.95c.58 0 1.049.467 1.049 1.05v14.7c0 .58-.468 1.05-1.049 1.05H36.95l.35 2.1z" fill="#3458A1"/>
    </g>
</svg>
