<svg width="70" height="70" viewBox="0 0 70 70" xmlns="http://www.w3.org/2000/svg" xmlns:xlink="http://www.w3.org/1999/xlink">
    <defs>
        <filter x="-46.6%" y="-39.8%" width="197.7%" height="197.7%" filterUnits="objectBoundingBox" id="zui6rrywwa">
            <feMorphology radius="2" operator="dilate" in="SourceAlpha" result="shadowSpreadOuter1"/>
            <feOffset dx="1" dy="4" in="shadowSpreadOuter1" result="shadowOffsetOuter1"/>
            <feGaussianBlur stdDeviation="4.5" in="shadowOffsetOuter1" result="shadowBlurOuter1"/>
            <feColorMatrix values="0 0 0 0 0 0 0 0 0 0 0 0 0 0 0 0 0 0 0.05 0" in="shadowBlurOuter1"/>
        </filter>
        <rect id="q2mzwzftrb" x="0" y="0" width="44" height="44" rx="8"/>
    </defs>
    <g fill="none" fill-rule="evenodd">
        <g transform="translate(12 9)">
            <use fill="#000" filter="url(#zui6rrywwa)" xlink:href="#q2mzwzftrb"/>
            <use fill="#FFF" xlink:href="#q2mzwzftrb"/>
        </g>
        <path d="M32.33 31.193c.26.206.47.64.47.974v6.894l2.4-1.299v-5.601c0-.329.208-.76.47-.968l5.015-3.993h-13.37l5.015 3.993zM43.6 24.8v-2.403l-19.2.003v2.4h19.2zm-6 13.203c0 .661-.472 1.452-1.055 1.767l-4.033 2.179c-1.167.63-2.112.07-2.112-1.258V32.72l-7.458-5.967c-.52-.416-.942-1.294-.942-1.958v-2.398A2.4 2.4 0 0 1 24.4 20h19.2c1.325 0 2.4 1.078 2.4 2.397v2.398c0 .665-.42 1.541-.942 1.958L37.6 32.72v5.283z" fill="#3458A1"/>
    </g>
</svg>
