<svg width="70" height="70" viewBox="0 0 70 70" xmlns="http://www.w3.org/2000/svg" xmlns:xlink="http://www.w3.org/1999/xlink">
    <defs>
        <filter x="-46.6%" y="-39.8%" width="197.7%" height="197.7%" filterUnits="objectBoundingBox" id="q2m8juz4pa">
            <feMorphology radius="2" operator="dilate" in="SourceAlpha" result="shadowSpreadOuter1"/>
            <feOffset dx="1" dy="4" in="shadowSpreadOuter1" result="shadowOffsetOuter1"/>
            <feGaussianBlur stdDeviation="4.5" in="shadowOffsetOuter1" result="shadowBlurOuter1"/>
            <feColorMatrix values="0 0 0 0 0 0 0 0 0 0 0 0 0 0 0 0 0 0 0.05 0" in="shadowBlurOuter1"/>
        </filter>
        <rect id="o48z5tvpvb" x="0" y="0" width="44" height="44" rx="8"/>
    </defs>
    <g fill="none" fill-rule="evenodd">
        <g transform="translate(12 9)">
            <use fill="#000" filter="url(#q2m8juz4pa)" xlink:href="#o48z5tvpvb"/>
            <use fill="#FFF" xlink:href="#o48z5tvpvb"/>
        </g>
        <path d="M37.625 19c2.761 0 5 2.203 5 4.921 0 1.035-.188 2.47-.624 3.85 1.51.552 2.684 1.441 3.529 2.62 1.057 1.477 1.47 3.191 1.47 4.857 0 .455-.247.874-.646 1.094-.487.269-1.33.651-2.462 1.029a19.94 19.94 0 0 1-2.571.674c.446.978.679 1.973.679 2.827 0 .483-.278.922-.714 1.13-.55.26-1.5.636-2.759 1.008-2.093.618-4.299.99-6.527.99-2.228 0-4.434-.372-6.527-.99-1.258-.372-2.21-.748-2.76-1.009A1.25 1.25 0 0 1 22 40.872c0-1.516.719-3.453 2.054-4.967a8.737 8.737 0 0 1 3.108-2.242c-.552-1.657-.787-3.416-.787-4.664a5.625 5.625 0 0 1 6.276-5.587c.26-2.479 2.387-4.412 4.974-4.412zm-.789 14.667a8.772 8.772 0 0 1 2.963 2.088 17.085 17.085 0 0 0 4.66-1.274c-.104-.936-.405-1.857-.962-2.634-.576-.804-1.4-1.418-2.533-1.794-.781 1.209-1.87 2.07-3.34 2.07-.122 0-.243-.006-.36-.018a15.238 15.238 0 0 1-.428 1.562zm.789-4.043c1.18 0 2.5-2.87 2.5-5.703 0-1.328-1.11-2.421-2.5-2.421s-2.5 1.093-2.5 2.421c0 .136.003.271.009.407a5.619 5.619 0 0 1 2.49 4.67c0 .197-.005.406-.017.625h.018zm-11.696 7.935c-.686.778-1.138 1.716-1.328 2.521.475.182 1.005.362 1.58.533 1.878.555 3.853.887 5.819.887 1.966 0 3.94-.332 5.818-.887a21.66 21.66 0 0 0 1.579-.532c-.191-.799-.644-1.735-1.327-2.512a6.285 6.285 0 0 0-2.272-1.63c-.881 1.417-2.12 2.434-3.798 2.434-1.68 0-2.919-1.018-3.8-2.437a6.269 6.269 0 0 0-2.27 1.623zM32 35.873c1.556 0 3.126-3.467 3.126-6.874a3.125 3.125 0 0 0-6.25 0c0 3.407 1.57 6.874 3.125 6.874z" fill="#3458A1"/>
    </g>
</svg>
