<svg width="34" height="33" viewBox="0 0 34 33" xmlns="http://www.w3.org/2000/svg">
    <path d="m15.466 25.145-6.198 3.26 1.184-6.903c.173-1.008-.214-2.201-.948-2.917l-5.015-4.888 6.93-1.007c1.013-.147 2.028-.883 2.482-1.803l3.101-6.275 3.097 6.275c.453.917 1.467 1.655 2.482 1.803l6.922 1.014-5.007 4.88c-.733.715-1.121 1.907-.948 2.918l1.2 6.91-6.214-3.267c-.906-.476-2.16-.477-3.068 0zm9.228 7.047c2.059 1.083 4.046-.36 3.653-2.654l-1.476-8.606c.014.084 6.23-6.028 6.23-6.028 1.667-1.624.91-3.96-1.395-4.294l-8.64-1.256c.084.012-3.808-7.789-3.808-7.789-1.03-2.086-3.485-2.088-4.516 0l-3.864 7.83c.038-.076-8.584 1.215-8.584 1.215-2.303.334-3.063 2.669-1.395 4.294L7.15 21c-.06-.06-1.498 8.539-1.498 8.539-.393 2.293 1.593 3.738 3.654 2.654l7.728-4.063c-.075.04 7.659 4.063 7.659 4.063z" fill="#3458A1" fill-rule="nonzero"/>
</svg>
