<svg width="32" height="32" viewBox="0 0 32 32" xmlns="http://www.w3.org/2000/svg">
    <path d="M3.2 19.2v3.2h25.6v-3.2H17.6a1.601 1.601 0 0 1-3.2.002L3.2 19.2zm25.6-16H3.2V16h25.6V3.2zm-8.533 25.6h3.729c.886 0 1.604.71 1.604 1.6 0 .884-.718 1.6-1.604 1.6H8.004c-.886 0-1.604-.71-1.604-1.6 0-.884.718-1.6 1.604-1.6h3.73l.533-3.2H1.597A1.596 1.596 0 0 1 0 23.999V1.6C0 .717.713 0 1.598 0h28.804C31.285 0 32 .711 32 1.601V24c0 .884-.713 1.601-1.598 1.601H19.733l.534 3.2z" fill="#3458A1" fill-rule="evenodd"/>
</svg>
