<svg width="21" height="20" viewBox="0 0 21 20" xmlns="http://www.w3.org/2000/svg">
    <path d="M17.024 18c.55 0 .995-.445.995-.995V2.995A.995.995 0 0 0 17.024 2H3.014a.995.995 0 0 0-.995.995v14.01c0 .55.445.995.995.995h7.005v-6h-1a1 1 0 1 1 0-2h1c0-1.897.214-3.092 1.104-4.088.88-.985 1.908-1.412 2.896-1.412a1 1 0 1 1 0 2c-.437 0-.918.2-1.405.744-.442.496-.595 1.347-.595 2.756h2a1 1 0 1 1 0 2h-2v6h5.005zM.019 17.005V2.995A2.995 2.995 0 0 1 3.014 0h14.01a2.995 2.995 0 0 1 2.995 2.995v14.01A2.995 2.995 0 0 1 17.024 20H3.014A2.995 2.995 0 0 1 .02 17.005z" fill="#3458A1" fill-rule="evenodd"/>
</svg>
