<svg width="21" height="20" viewBox="0 0 21 20" xmlns="http://www.w3.org/2000/svg">
    <path d="M5.014 0h10.01a4.995 4.995 0 0 1 4.995 4.995v10.01A4.995 4.995 0 0 1 15.024 20H5.014A4.995 4.995 0 0 1 .02 15.005V4.995A4.995 4.995 0 0 1 5.014 0zM2.02 15.005A2.995 2.995 0 0 0 5.014 18h10.01a2.995 2.995 0 0 0 2.995-2.995V4.995A2.995 2.995 0 0 0 15.024 2H5.014A2.995 2.995 0 0 0 2.02 4.995v10.01zm3-5.005a5 5 0 1 1 10 0 5 5 0 0 1-10 0zm8 0a3 3 0 1 0-6 0 3 3 0 0 0 6 0zm2-4a1 1 0 1 1 0-2 1 1 0 0 1 0 2z" fill="#3458A1" fill-rule="evenodd"/>
</svg>
