<svg width="21" height="20" viewBox="0 0 21 20" xmlns="http://www.w3.org/2000/svg">
    <path d="M.02 17.005V2.995A2.995 2.995 0 0 1 3.013 0h14.01a2.995 2.995 0 0 1 2.995 2.995v14.01A2.995 2.995 0 0 1 17.024 20H3.014A2.995 2.995 0 0 1 .02 17.005zM3.013 2a.995.995 0 0 0-.995.995v14.01c0 .55.445.995.995.995h14.01c.55 0 .995-.445.995-.995V2.995A.995.995 0 0 0 17.024 2H3.014zM5.02 9.003a.999.999 0 1 1 2 0v4.994a.999.999 0 1 1-2 0V9.003zM6.02 7a1 1 0 1 1 0-2 1 1 0 0 1 0 2zm4.5 4.25V14a1 1 0 1 1-2 0v-2.75A3.252 3.252 0 0 1 11.77 8a3.253 3.253 0 0 1 3.25 3.25V14a1 1 0 1 1-2 0v-2.75c0-.688-.561-1.25-1.25-1.25s-1.25.56-1.25 1.25z" fill="#3458A1" fill-rule="nonzero"/>
</svg>
