<svg width="20" height="18" viewBox="0 0 20 18" xmlns="http://www.w3.org/2000/svg">
    <path d="M5.804 12.68a1 1 0 0 1-.138 1.736c-.264.123-2.61.756-2.61.756.935.551 2.245.838 3.958.838 5.496 0 9.507-4.037 9.511-10.079 0-.104-.005-.4-.005-.427 0-2.081-1.09-3.513-2.996-3.503-1.92.01-3.008 1.431-3.008 3.503l-.003.988a1 1 0 0 1-1.12.994 11.306 11.306 0 0 1-6.547-3.112s-.231.872-.287 1.272c.032.04.653.667 1.007.92.271.194.565.37.882.523a1 1 0 1 1-.872 1.801 8.07 8.07 0 0 1-.894-.505c.396 1.618 1.397 3.129 3.122 4.295zM18.964 2.01c1.01-.054 1.364.574.782 1.403l-1.232 1.754c.005.111.012.631.012.764-.004 7.144-4.908 12.08-11.512 12.08-3.261 0-5.368-.852-6.82-2.84a1 1 0 0 1 .62-1.574c.033-.006 2.343-.505 2.343-.505C.107 10.009-.175 5.628 1.63 2.055A1 1 0 0 1 3.318 1.9a9.273 9.273 0 0 0 5.203 3.399c.1-3.004 1.93-5.282 4.992-5.298 1.827-.01 3.217.802 4.064 2.086l1.388-.075z" fill="#3458A1" fill-rule="evenodd"/>
</svg>
