<svg width="26" height="20" viewBox="0 0 26 20" xmlns="http://www.w3.org/2000/svg">
    <path d="M4.328.306S7.312 0 13 0c5.688 0 8.678.307 8.678.307 1.789.13 3.51 1.66 3.798 3.432 0 0 .524 1.949.524 6.011 0 4.063-.526 6.022-.526 6.022-.308 1.76-2.004 3.296-3.799 3.416 0 0-3.258.312-8.675.312-5.417 0-8.682-.313-8.682-.313-1.786-.126-3.505-1.655-3.794-3.426 0 0-.524-1.948-.524-6.011 0-4.063.526-6.022.526-6.022.308-1.76 2.01-3.3 3.802-3.422zM2.41 5.5c-.152 1.153-.244 2.568-.244 4.251 0 1.683.092 3.096.243 4.246.086.652.253 1.417.253 1.417.124.763 1.007 1.556 1.862 1.617.087.009 1.58.117 2.216.15 1.83.096 3.928.153 6.259.153 2.331 0 4.428-.057 6.256-.153.636-.033 2.125-.14 2.213-.15.855-.057 1.734-.85 1.871-1.632 0 0 .163-.743.249-1.397.152-1.153.244-2.568.244-4.251 0-1.683-.092-3.096-.243-4.246-.086-.652-.253-1.417-.253-1.417-.124-.764-1.01-1.56-1.815-1.62-.14-.013-1.544-.117-2.164-.15-1.785-.094-3.908-.15-6.358-.15-2.45 0-4.571.056-6.355.15-.62.032-2.17.151-2.17.151-.793.054-1.678.852-1.815 1.634 0 0-.163.743-.249 1.397zm7.888 1.714c.002-.6.43-.85.948-.562l4.608 2.566c.522.29.518.766-.002 1.057l-4.621 2.59c-.523.294-.946.043-.945-.557l.012-5.094z" fill="#3458A1" fill-rule="nonzero"/>
</svg>
