<svg width="36" height="36" viewBox="0 0 36 36" xmlns="http://www.w3.org/2000/svg">
    <path d="M18 0c9.941 0 18 8.059 18 18s-8.059 18-18 18S0 27.941 0 18 8.059 0 18 0zm0 3.6C10.047 3.6 3.6 10.047 3.6 18S10.047 32.4 18 32.4 32.4 25.953 32.4 18 25.953 3.6 18 3.6zM21.92 16l-.025.136a4.52 4.52 0 0 1-.488 1.269c-.405.71-1.01 1.28-1.814 1.71-.644.345-1.406.57-2.288.68l-.14.014 5.037 5.426c.13.138.196.257.196.357a.354.354 0 0 1-.143.3.605.605 0 0 1-.374.108h-2.415c-.224 0-.396-.05-.516-.152a3.044 3.044 0 0 1-.313-.302l-5.136-5.476c-.147-.15-.242-.292-.283-.425a1.995 1.995 0 0 1-.062-.564v-.827c0-.158.054-.29.163-.393a.571.571 0 0 1 .411-.156h1.123c1.016 0 1.794-.125 2.332-.374.538-.25.909-.59 1.11-1.022l.08-.189.042-.12h3.503zm-5.868 2.61-.26 1.318.83-.074c.118-.007.233-.015.347-.025l.196-.02-1.113-1.2zM18.506 14l.016.067c.05.241.076.496.076.764 0 .395-.051.76-.154 1.093l-.027.076h-4.843a.562.562 0 0 1-.411-.16.543.543 0 0 1-.163-.404l.01-.872c0-.163.054-.297.162-.404a.562.562 0 0 1 .411-.16h4.923zm4.92 0c.166 0 .303.053.411.16a.543.543 0 0 1 .163.404l-.01.872a.543.543 0 0 1-.162.404.562.562 0 0 1-.411.16H21.92l.027-.138c.03-.186.05-.375.06-.57l.008-.294a5.36 5.36 0 0 0-.07-.882L21.92 14h1.505zm0-4c.166 0 .303.052.411.156a.522.522 0 0 1 .163.393v.849c0 .158-.054.29-.163.393a.571.571 0 0 1-.411.156h-2.611l.135.11c.234.207.42.449.56.726.169.332.295.683.379 1.053l.032.164h-3.415l-.042-.17a3.068 3.068 0 0 0-.169-.45c-.201-.432-.557-.779-1.067-1.04-.51-.262-1.229-.393-2.156-.393h-1.498a.571.571 0 0 1-.411-.156.522.522 0 0 1-.163-.393v-.849c0-.158.054-.29.163-.393a.571.571 0 0 1 .411-.156h9.852zm-3.732 1.4-.066.547h1.187l-.01-.009a3.234 3.234 0 0 0-.898-.47l-.213-.068z" fill="#3458A1" fill-rule="evenodd"/>
</svg>
