<svg width="32" height="35" viewBox="0 0 32 35" xmlns="http://www.w3.org/2000/svg">
    <path d="M6.662 30.183C2.553 26.8.032 22.4 0 17.22.02 11.514 0 1.806 0 1.735A1.722 1.722 0 0 1 2.163.058C2.204.07 4.5.635 6.173.886c3.083.463 6.253.837 9.329.837 3.098 0 6.268-.374 9.35-.837 1.675-.25 3.97-.817 4.01-.828a1.722 1.722 0 0 1 2.164 1.677c0 .07-.02 9.78 0 15.484-.031 5.18-2.553 9.58-6.662 12.964-3.029 2.496-6.91 4.292-8.862 4.266-1.93.026-5.811-1.77-8.84-4.266zm-1.1-25.861c-.751-.107-1.427-.3-2.117-.436 0 .657.019 7.632 0 13.329.024 4.03 2.028 7.525 5.407 10.31a20.045 20.045 0 0 0 4.24 2.68c1.113.514 2.082.804 2.41.8.35.004 1.32-.286 2.432-.8a20.045 20.045 0 0 0 4.24-2.68c3.38-2.785 5.383-6.28 5.407-10.31-.019-5.697 0-12.672 0-13.33-.69.137-1.366.33-2.117.437-3.29.468-6.652.846-9.962.846-3.288 0-6.65-.378-9.94-.846zm7 18.427-5.168-5.167a1.722 1.722 0 1 1 2.436-2.436l3.95 3.974 8.255-8.28a1.722 1.722 0 1 1 2.436 2.436l-9.474 9.473a1.722 1.722 0 0 1-2.436 0z" fill="#3458A1" fill-rule="evenodd"/>
</svg>
