<svg width="42" height="32" viewBox="0 0 42 32" xmlns="http://www.w3.org/2000/svg">
    <path d="M12.209 24.742c.346.377.935.92 1.531 1.316 1.772 1.177 4.14 1.895 7.225 1.895s5.45-.718 7.218-1.894c.595-.395 1.303-.963 1.526-1.315v-7.337l-6.42 3.055c-1.347.64-3.314.64-4.656-.001l-6.424-3.07v7.351zm-3.5-9.022L.996 12.035C-.333 11.4-.332 9.508.998 8.875L18.626.483c1.347-.641 3.315-.643 4.66-.005l17.708 8.397c1.333.632 1.334 2.528.002 3.162l-.787.375v8.338a2.625 2.625 0 1 1-3.5 0v-6.673l-3.5 1.666v9.56c.005.32-.077.643-.254.936a6.61 6.61 0 0 1-.736.95 11.154 11.154 0 0 1-2.098 1.786c-2.34 1.556-5.38 2.478-9.156 2.478-3.775 0-6.816-.921-9.16-2.478a11.196 11.196 0 0 1-2.102-1.784 6.632 6.632 0 0 1-.738-.948 1.742 1.742 0 0 1-.256-.94V15.72zM20.131 3.642 5.806 10.454l14.335 6.849c.39.186 1.25.186 1.644-.001l14.372-6.84-14.37-6.822c-.394-.187-1.26-.187-1.656.002z" fill="#3458A1" fill-rule="evenodd"/>
</svg>
