<svg width="36" height="36" viewBox="0 0 36 36" xmlns="http://www.w3.org/2000/svg">
    <path d="M18 36C8.059 36 0 27.941 0 18S8.059 0 18 0s18 8.059 18 18-8.059 18-18 18zm0-3.6c7.953 0 14.4-6.447 14.4-14.4S25.953 3.6 18 3.6 3.6 10.047 3.6 18 10.047 32.4 18 32.4zm0-21.6a3.6 3.6 0 0 0-3.6 3.6 1.8 1.8 0 0 1-3.6 0A7.2 7.2 0 0 1 18 7.2c4.017 0 7.211 2.889 7.211 6.837 0 2.157-.757 3.477-2.374 4.869-.166.143-2.037 1.662-2.107 1.718-.75.6-.907.87-.907 1.766a1.8 1.8 0 0 1-3.6 0c0-2.106.72-3.347 2.259-4.578-.06.048 1.872-1.519 2.007-1.635.89-.766 1.122-1.17 1.122-2.14 0-1.875-1.506-3.237-3.611-3.237zm0 18a1.8 1.8 0 1 1 0-3.6 1.8 1.8 0 0 1 0 3.6z" fill="#3458A1" fill-rule="evenodd"/>
</svg>
