<svg width="36" height="36" viewBox="0 0 36 36" xmlns="http://www.w3.org/2000/svg">
    <path d="M23.187 31.707c3.807.04 5.693-.728 6.654-2.572h-.694c-.95 0-1.72-.76-1.72-1.714 0-.947.76-1.714 1.72-1.714h1.717l.445-1.714h-1.305c-.95 0-1.72-.761-1.72-1.715 0-.946.76-1.714 1.72-1.714h2.191c.2-.773.332-1.288.338-1.314.163-.753-.25-1.258-1.056-1.258H25.29a4.105 4.105 0 0 1-4.056-4.948c.018-.088.512-2.582.544-2.766.354-2.007.52-3.44.507-4.256v-.12c.01-.511-.302-1.056-1.122-1.695a18.84 18.84 0 0 0-.695-.437l-4.942 10.683c-.916 1.98-3.058 3.41-5.24 3.531v13.73c5.438-.002 12.236-.004 12.901-.007zM6.857 17.993h-3.43l.001 13.722h3.429V17.992zm-3.43 17.142A3.423 3.423 0 0 1 0 31.715v-13.73a3.425 3.425 0 0 1 3.428-3.42h6.556c.95 0 2.021-.734 2.43-1.552.41-.817 5.332-11.524 5.332-11.524a2.545 2.545 0 0 1 3.46-1.215s1.249.592 2.065 1.228c1.515 1.181 2.474 2.678 2.442 4.463.019 1.129-.185 2.793-.559 4.91-.1.565-.56 2.846-.56 2.846-.092.466.22.842.697.842h6.186c2.983 0 5.029 2.513 4.414 5.389-.02.097-2.18 8.77-2.57 9.777-1.454 3.937-4.827 5.464-10.17 5.406-2.453.012-19.723 0-19.723 0z" fill="#3458A1" fill-rule="evenodd"/>
</svg>
