<svg width="31" height="38" viewBox="0 0 31 38" xmlns="http://www.w3.org/2000/svg">
    <path d="m23.425 10.09 2.157-2.158a1.875 1.875 0 0 1 2.648 0l1.328 1.328a1.868 1.868 0 0 1 0 2.649l-2.157 2.157a14.927 14.927 0 0 1 2.591 8.428c0 8.282-6.714 14.996-14.996 14.996S0 30.776 0 22.494c0-7.647 5.724-13.957 13.122-14.88v-1.99h-1.867A1.88 1.88 0 0 1 9.373 3.75V1.873A1.88 1.88 0 0 1 11.255 0h7.482a1.88 1.88 0 0 1 1.883 1.873V3.75a1.88 1.88 0 0 1-1.883 1.873h-1.866v1.99a14.91 14.91 0 0 1 6.554 2.475zM14.996 33.74c6.212 0 11.247-5.035 11.247-11.247 0-6.211-5.035-11.247-11.247-11.247-6.211 0-11.247 5.036-11.247 11.247 0 6.212 5.036 11.247 11.247 11.247zm-1.874-18.737a1.874 1.874 0 1 1 3.749 0v7.482a1.874 1.874 0 1 1-3.75 0v-7.482z" fill="#3458A1" fill-rule="nonzero"/>
</svg>
