<?xml version="1.0" encoding="UTF-8"?>
<svg width="16px" height="24px" viewBox="0 0 16 24" version="1.1" xmlns="http://www.w3.org/2000/svg" xmlns:xlink="http://www.w3.org/1999/xlink">
    <title>Combined Shape</title>
    <g id="Page-1" stroke="none" stroke-width="1" fill="none" fill-rule="evenodd">
        <g id="Landing-page-01" transform="translate(-571.000000, -212.000000)" fill="#FFFFFF">
            <path d="M583.363115,230.681693 C584.632594,230.466327 585.88703,231.319968 586.164974,232.588356 C586.442919,233.856743 585.639121,235.059563 584.369642,235.27493 C583.523322,235.418507 580.834672,235.080637 576.303692,234.261317 C580.163654,232.018479 582.516795,230.825271 583.363115,230.681693 Z M583.842257,223.503467 C584.869455,224.670235 584.72594,226.396192 583.521708,227.3585 C582.718886,228.000039 579.707589,229.206755 574.487815,230.978649 C577.227715,226.389928 578.999075,223.774798 579.801897,223.133259 C581.006129,222.170951 582.81506,222.336699 583.842257,223.503467 Z M577.673242,213.153356 C579.423327,213.969434 580.18049,216.049721 579.364411,217.799807 C578.820359,218.96653 576.143545,221.949252 571.333968,226.747973 C571.918464,219.979065 572.482739,216.011249 573.026791,214.844526 C573.842869,213.09444 575.923156,212.337278 577.673242,213.153356 Z" id="Combined-Shape"></path>
        </g>
    </g>
</svg>