<svg width="36" height="36" viewBox="0 0 36 36" xmlns="http://www.w3.org/2000/svg">
    <g fill="none" fill-rule="evenodd">
        <rect stroke="#E5E1E1" fill="#FFF" x=".5" y=".5" width="35" height="35" rx="4"/>
        <path d="M14.25 9.854c0-.472.382-.854.846-.854h6.808a.85.85 0 0 1 .846.854V12.4h3.401a.85.85 0 0 1 .849.846v6.808c0 .466-.38.845-.85.846v4.253a.847.847 0 0 1-.85.847H11.7a.85.85 0 0 1-.85-.847V20.9a.85.85 0 0 1-.85-.846v-6.808c0-.467.379-.846.849-.846h3.401V9.854zm1.7 2.546h5.1v-1.7h-5.1v1.7zm-3.4 11.9h11.9v-3.4h-3.4v.846a.854.854 0 0 1-.854.854h-3.392a.854.854 0 0 1-.854-.854V20.9h-3.4v3.4zm8.5-5.1h4.25v-5.1H11.7v5.1h4.25v-.846c0-.472.383-.854.854-.854h3.392c.472 0 .854.383.854.854v.846zm-3.4 0v1.7h1.7v-1.7h-1.7z" fill="#000"/>
    </g>
</svg>
