<svg width="22" height="22" viewBox="0 0 22 22" xmlns="http://www.w3.org/2000/svg">
    <path d="M3 15.99v1.357c.35.213 3.146 1.65 8 1.65s7.65-1.435 8-1.649V15.99c0-1.716-3.807-3.05-4.078-3.152C14.07 14.366 12.812 15.5 11 15.5c-1.81 0-3.069-1.133-3.92-2.66-.269.1-4.08 1.43-4.08 3.15zM5.5 6.18C5.5 3.319 7.962 1 11 1s5.5 2.319 5.5 5.179c0 1.213-.212 3.075-.786 4.817C17.717 11.761 21 13.001 21 15.99v2.008C21 19.103 16.685 21 11 21S1 19.099 1 17.998V15.99c0-3 3.285-4.228 5.287-4.991-.575-1.743-.787-3.606-.787-4.82zM11 13.5c1.97 0 3.5-3.617 3.5-7.321C14.5 4.45 12.959 3 11 3S7.5 4.45 7.5 6.179C7.5 9.883 9.03 13.5 11 13.5z" fill="#3458A1" stroke="#3458A1" stroke-width=".5" fill-rule="evenodd"/>
</svg>
