<svg width="16" height="15" viewBox="0 0 16 15" xmlns="http://www.w3.org/2000/svg">
    <path d="m14.4 5.827-.058-.025.038-.05c.958-1.279-.088-3.091-1.675-2.9l-.062.007a8.4 8.4 0 0 0 .008-.062c.19-1.587-1.622-2.633-2.9-1.675a12.28 12.28 0 0 0-.051.038l-.025-.058c-.628-1.47-2.72-1.47-3.349 0l-.024.058a12.283 12.283 0 0 0-.05-.038c-1.279-.958-3.092.088-2.9 1.675l.007.062-.063-.008c-1.586-.19-2.632 1.622-1.674 2.9l.038.051-.058.025c-1.47.628-1.47 2.72 0 3.349l.058.024a12.28 12.28 0 0 0-.038.05c-.958 1.279.088 3.091 1.675 2.9l.062-.007-.008.063c-.19 1.586 1.622 2.632 2.9 1.674l.051-.038.025.058c.628 1.47 2.72 1.47 3.349 0l.024-.058.05.038c1.279.959 3.091-.088 2.9-1.674a9.511 9.511 0 0 0-.007-.063l.063.008c1.586.19 2.632-1.622 1.674-2.9l-.038-.05.058-.025c1.47-.628 1.47-2.722 0-3.35zm-7.259 4.761-3.09-3.084L5.416 6.14l1.722 1.722 3.448-3.448 1.365 1.365-4.81 4.809z" fill="#42B52A" fill-rule="nonzero"/>
</svg>
