<svg width="13" height="12" viewBox="0 0 13 12" xmlns="http://www.w3.org/2000/svg">
    <path d="M8.841 11.884c.737.395 1.449-.132 1.308-.97L9.621 7.77c.005.03 2.23-2.202 2.23-2.202.597-.594.326-1.447-.5-1.57L8.259 3.54c.03.004-1.363-2.846-1.363-2.846-.369-.762-1.248-.762-1.617 0l-1.383 2.86C3.908 3.528.82 4 .82 4c-.824.122-1.096.975-.5 1.569l2.24 2.226c-.022-.022-.537 3.12-.537 3.12-.14.838.57 1.365 1.308.97l2.767-1.485c-.027.015 2.742 1.485 2.742 1.485z" fill="#FFF" fill-rule="nonzero"/>
</svg>
