<svg width="17" height="17" viewBox="0 0 17 17" xmlns="http://www.w3.org/2000/svg">
    <path d="M8.488 9.43a3.772 3.772 0 0 0 3.219-5.74c-1.15 1.028-3.71 1.028-5.03 1.028-.928 0-1.56.666-1.946 1.287A3.773 3.773 0 0 0 8.488 9.43zM2.829 5.66a5.659 5.659 0 1 1 9.877 3.772h1.427c.519 0 1.052.406 1.193.91l1.594 5.725c.14.502-.168.91-.694.91L.73 16.99c-.523 0-.835-.405-.696-.91l1.584-5.736c.14-.504.676-.912 1.191-.912H4.27a5.637 5.637 0 0 1-1.44-3.772zm10.808 5.658-10.333.002-1.048 3.77 12.442.001-1.061-3.773z" fill="#000" fill-rule="evenodd"/>
</svg>
