<?xml version="1.0" encoding="UTF-8"?>
<svg width="335px" height="139px" viewBox="0 0 335 139" version="1.1" xmlns="http://www.w3.org/2000/svg" xmlns:xlink="http://www.w3.org/1999/xlink">
    <title>edvi-white</title>
    <g id="Page-1" stroke="none" stroke-width="1" fill="none" fill-rule="evenodd">
        <path d="M75.6155976,44.971963 C92.3169759,54.0282578 101.011569,71.490201 97.0522664,90.7985732 C95.6942874,97.4369252 92.5815173,103.266365 88.6045787,108.269309 C87.9696794,109.069428 87.2289636,109.755245 86.5587921,110.502609 C85.8092583,111.329106 85.2978116,111.663221 84.3895529,112.630398 C81.0827859,116.129821 81.1709663,114.942831 74.8043374,108.849615 C73.5543794,107.641743 72.1423899,106.420407 70.9346277,105.179717 L70.4305868,104.646791 L61.5067247,96.19718 C60.8859343,95.6063227 60.4118762,95.0323471 59.8497787,94.457246 L59.4080298,94.0254278 L41.7719387,77.1437908 C34.5146872,70.6812892 40.3169612,65.4673253 44.8318005,65.783856 C47.1068563,65.9421213 48.8312341,67.5667636 50.5602394,69.3344444 L50.9929085,69.7785788 L51.2099179,70.0014451 L51.2099179,70.0014451 L51.4276986,70.2240782 L63.0939729,82.006054 C66.0568362,84.9515479 68.9403371,87.6156813 71.8679282,90.6051378 C73.3581779,92.1350361 78.984091,98.2985921 80.7477001,98.8261433 C84.398371,95.0981151 87.2289636,85.1625684 86.1090718,78.0054577 C84.8745454,70.118568 81.2415107,64.0517297 77.0264849,60.2357764 C74.6191584,58.0464391 72.7056426,56.2351801 69.0726078,54.6437341 C54.6727394,48.3307053 39.2411596,53.0610807 31.2343743,64.7990938 C24.6737483,74.4269024 24.2857543,85.7956298 29.444311,95.959782 C30.2291171,97.5072654 31.1373758,98.9316535 32.0985427,100.074681 C34.8457031,103.32115 36.0519882,104.023185 38.4376042,106.651837 L38.729713,106.976809 L48.8881015,116.666165 C50.1579,118.002628 54.2494732,122.187867 55.8631755,122.882476 C58.7202223,120.798649 62.4590736,115.769328 64.9104903,114.617508 C70.9253673,111.788515 76.8451762,119.171316 71.2474688,124.412485 L71.0743041,124.57064 L60.2721983,135.200795 C56.2546967,139.277359 56.31041,140.14899 53.572943,137.448107 L53.187807,137.063781 C51.8439104,135.710849 49.878368,133.638365 46.674772,130.813328 C45.0875238,129.415318 43.8882696,128.017307 42.3715658,126.548956 C40.9430424,125.168531 39.1970694,123.814483 37.9096347,122.434057 C32.3983563,116.499107 25.564371,111.417031 21.0848038,104.743509 C16.4465118,97.8325886 12.9722019,87.729984 14.2772726,77.3284337 C18.024942,47.4690384 50.1226279,31.1589152 75.6155976,44.971963 Z M9.71733265,20.2819506 C9.93521148,20.4369242 10.4135196,20.8869891 11.0487876,21.517681 L11.4479558,21.9168558 C12.350043,22.8247292 13.4824196,23.9991736 14.6177635,25.1887109 L15.0715205,25.6647346 C17.1847624,27.8843718 19.2027313,30.0397646 19.6468555,30.4952262 C21.7180988,32.6292124 24.7138456,34.9388354 26.1983848,37.5206953 C28.2340704,41.0509935 26.1272692,44.8535286 22.8559492,45.7492759 C18.3578843,46.9955493 15.665043,43.2870859 14.0606986,41.4079895 L13.9576034,41.288103 L7.39718452,34.4997436 C6.59042992,33.6474736 5.55922431,32.7317648 4.5246199,31.7572129 L4.13691567,31.3890066 C1.36341522,28.7305562 -1.23506057,25.6512517 0.632308192,22.2403001 C1.4679171,20.7034787 2.36575219,19.9131135 4.30365369,19.2808213 C6.41934432,18.595838 8.26835125,19.2544758 9.71733265,20.2819506 Z M111.157719,19.5556422 C112.49034,20.7569203 113.080629,22.0897251 112.991192,24.544892 C112.89281,27.3157231 109.279527,30.0251751 107.186684,32.1296038 C105.162836,34.1663902 103.355829,36.0872182 101.405201,38.0135681 L100.416249,38.9777656 L97.017616,42.3799253 C96.0427449,43.4233712 94.9605486,44.5983439 92.9750314,44.9140082 C88.8966716,45.5716422 85.5785325,42.3623884 86.0436086,38.5305745 C86.3298092,36.2069344 87.358343,35.4703844 88.5746959,34.3304855 C89.6002483,33.3562129 90.3431334,32.3957967 91.3686859,31.3445446 L91.7676222,30.9458626 L96.9281783,25.9040022 C97.5184672,25.2463682 97.8941056,24.720261 98.5022821,24.0713955 C99.9332855,22.5544531 103.376637,18.7226392 105.997162,18.1351528 C108.090005,17.6616564 110.003972,18.5034279 111.157719,19.5556422 Z M54.2988001,0.0678402096 C55.807259,-0.227436827 57.4901062,0.484701908 58.5015585,1.3618484 C62.1549937,4.50568038 60.7598872,8.80456664 60.6378153,15.5264615 C60.56806,19.2608476 60.6378153,23.0820798 60.4808659,26.8077813 C60.4023911,28.8226128 60.2715999,29.7605516 59.1293564,30.9763982 C55.5282377,34.8149997 49.9129339,32.7741143 49.07587,28.3536434 C49.025422,28.0893828 49.0030006,27.0319419 49.0002837,25.5104878 L49.0009516,24.5445672 C49.0177026,18.6724062 49.2512548,8.01501074 49.3548913,6.28602721 C49.5292796,3.17693371 51.4301123,0.632340427 54.2988001,0.0678402096 Z M219.918361,73.5300098 C232.317592,72.0010978 239.920812,78.4349011 241.249615,89.4819534 C242.692819,101.56301 236.541603,110.100172 226.210377,111.611409 C205.750325,114.616207 199.94231,92.0183566 207.985531,80.3791823 C210.563937,76.658535 213.661545,74.3077223 219.918361,73.5300098 Z M241.504816,71.2498982 C240.721614,70.861042 239.595211,69.7386615 238.609608,69.084676 C230.319987,63.5699874 220.323162,62.8806514 211.179939,66.3803575 C201.587914,70.0568166 196.228701,79.0977242 195.181498,89.146123 C194.292696,97.6479345 196.703902,105.619488 201.631915,111.646759 C209.490335,121.244438 225.594375,123.939919 237.245605,117.461928 C247.03123,112.009103 250.736039,103.28635 250.85044,92.0360319 C251.05284,72.6197327 250.445639,53.1327324 250.753639,33.8489978 C250.771239,32.2582222 251.07044,30.6144208 250.040838,29.5362285 C248.219233,27.6272979 244.690424,27.5919473 242.851219,28.9087559 C241.742416,29.7129814 241.557616,30.4023174 241.531216,32.2582222 C241.372815,45.170017 241.892017,58.3999669 241.504816,71.2498982 Z M141.36767,86.1479775 C141.103669,84.9071744 143.981276,79.9087617 145.52128,78.2455575 C152.446898,70.7303384 166.245333,71.7071409 172.458149,77.9375567 C174.033353,79.5127607 176.752559,84.1415724 176.81416,85.7607766 C176.85816,86.8079792 175.978157,86.5263785 174.851755,86.5175785 L147.114084,86.5439785 C146.137282,86.5439785 141.53487,86.9047795 141.36767,86.1479775 Z M141.147669,95.4672012 C143.532475,94.8775997 157.26051,95.3088008 160.868519,95.3176008 C167.468536,95.3352009 174.094953,95.379201 180.703769,95.3440009 C184.056578,95.3176008 186.696585,95.2648007 187.048586,91.7887919 C187.541387,86.9839797 185.226981,79.9703618 182.912575,76.0543519 C175.995758,64.3063221 159.592516,61.516715 147.325285,66.0751266 C131.546845,71.9447415 127.331634,92.1055927 134.134051,106.115228 C141.57887,121.436067 161.977322,123.996874 175.133355,116.191254 C178.776565,114.017648 184.66378,109.089636 177.773362,105.763227 C174.394153,104.135223 173.04775,106.159228 171.129345,107.681632 C163.834127,113.489647 148.882889,113.252046 143.242074,103.308021 C142.617273,102.199218 142.098071,101.081615 141.737271,99.8760124 C141.55247,99.2776109 141.37647,98.520809 141.235669,97.8696073 C141.086069,97.1568055 140.830868,96.1976031 141.147669,95.4672012 L141.147669,95.4672012 Z M286.525594,105.153583 C285.082198,102.998319 272.047891,70.0041444 270.184598,67.0417642 C269.064872,65.2678838 266.466759,64.5938093 263.413757,65.2412756 C260.334511,65.888742 260.701921,68.3987826 261.777907,71.0241256 L277.961442,109.375419 C280.603295,115.566261 280.725765,118.936634 286.289402,118.99872 C289.80604,119.034197 290.820792,118.342384 292.141718,115.681563 C294.066246,111.787896 298.3352,101.126875 300.242233,96.6389578 C303.872594,88.1065933 307.459215,79.7338781 310.993349,71.1926442 C311.352011,70.3323122 312.156814,68.6116483 311.973109,67.5916671 C311.780656,66.5007307 310.90587,65.6137905 309.733658,65.338839 C306.916848,64.6825033 303.933829,65.0816264 302.691633,67.0861112 C300.66213,70.350051 287.72405,103.636916 286.525594,105.153583 L286.525594,105.153583 Z M332.711322,116.459677 C333.279506,114.897254 332.830457,89.126155 332.848786,85.0780596 C332.885443,79.7871278 333.013742,74.4340541 332.9221,69.1519997 C332.876279,66.1869474 331.886539,65.2193105 328.862335,65.0328851 C326.122224,64.855337 323.867817,65.3613489 323.317962,67.4209063 C322.749778,69.5159732 323.116348,80.3020171 323.116348,83.2581921 C323.107184,93.0233347 322.896406,105.407311 323.180498,114.879499 C323.354619,120.561037 331.556626,119.646664 332.711322,116.459677 Z M326.859948,44.1477181 C317.216938,45.9768795 320.431275,59.894412 329.571484,57.7824817 C338.34357,55.7500801 335.79365,42.4599411 326.859948,44.1477181 Z" id="edvi-white" fill="#FFFFFF"></path>
    </g>
</svg>