<svg width="91" height="37" viewBox="0 0 91 37" xmlns="http://www.w3.org/2000/svg">
    <path d="M22.99 14.407a10.82 10.82 0 0 1-.299 15.276l-.131.124-1.062.996-10.71-10.584a1.48 1.48 0 0 1-.001-2.107 1.515 1.515 0 0 1 2.104-.025l.024.022 8.545 8.445.053-.073a7.858 7.858 0 0 0-.618-9.93l-.09-.096c-3.033-3.175-8.09-3.313-11.297-.31a7.86 7.86 0 0 0-.403 11.092l.102.107c.073.079.15.156.23.232l.073.068 5.381 5.172 2.117-2.096a1.515 1.515 0 0 1 2.105-.023l.023.023c.58.574.588 1.5.023 2.084l-.023.023L14.923 37l-7.49-7.2-.06-.055a8.365 8.365 0 0 1-.302-.3l-.062-.064a10.82 10.82 0 0 1 .3-15.276l.131-.125c4.413-4.134 11.375-3.943 15.55.427zM64.15 6l1.138.002c.553.294.713.778.712 1.405-.012 5.511 0 11.012-.01 16.517 0 2.972-1.027 5.43-3.578 6.936-2.55 1.506-5.196 1.518-7.748.046-2.473-1.426-3.605-3.756-3.661-6.664-.045-2.29.497-4.366 2.116-6.028 2.611-2.68 7.351-2.829 10.119-.324l.215.198v-.669c0-3.318.006-6.636-.006-9.954 0-.629.114-1.16.703-1.465zm-23.5 10.003c2.327.053 4.346.838 5.847 2.796 1.108 1.445 1.484 3.157 1.503 4.968.007.743-.358 1.065-1.137 1.069-1.872.01-3.746 0-5.619 0h-5.596v.001c.266 2.796 1.85 4.413 4.393 4.569 1.567.096 2.997-.21 4.174-1.429.559-.578 1.85-.186 2.137.587.159.43-.02.764-.288 1.08-1.043 1.222-2.376 1.855-3.88 2.183-3.04.645-6.287-.546-7.833-2.999-1.378-2.182-1.642-4.605-1.063-7.13.827-3.602 3.657-5.785 7.362-5.695zm42.777.108c.453.143.675.525.528 1.002-.132.407-.284.807-.457 1.198-1.62 3.88-3.25 7.756-4.859 11.642-.293.723-.749 1.047-1.521 1.047-.806 0-1.416-.173-1.765-1.02l-1.72-4.148-3.459-8.287c-.411-.987-.093-1.478.949-1.488 1.042-.01 1.287.154 1.704 1.153l3.929 9.425c.07.178.15.352.263.623l2.08-5.024c.703-1.695 1.404-3.39 2.102-5.088.406-.979 1.218-1.354 2.226-1.035zm5.223.004c.333.109.348.636.349 1.061L89 20.313v9.3c0 .46 0 .952-.356 1.183a1.094 1.094 0 0 1-1.29-.012c-.3-.209-.347-.599-.353-1L87 17.268c0-.482.006-1.055.399-1.184a2.027 2.027 0 0 1 1.251.03zm-34.16 4.397c-.73 1.038-.94 2.246-.93 3.509.005 2.938 1.507 4.893 4.063 5.295 2.648.411 4.857-.865 5.537-3.34.236-.858.28-1.807.238-2.706-.118-2.53-1.63-4.283-3.978-4.612-1.925-.269-3.694.085-4.93 1.854zM40.06 18.53c-2.287.182-4.102 1.816-4.234 3.83h9.47c-.532-2.592-2.537-4.04-5.236-3.83zm50.843-7.018a.963.963 0 0 0 .097.182v.787c-.093.15-.19.299-.278.45a2.013 2.013 0 0 1-2.446.953c-.881-.304-1.382-1.163-1.257-2.157a1.931 1.931 0 0 1 1.796-1.721c.997-.07 1.804.514 2.088 1.506zM2.578 5.43l.024.023 3.974 4.034c.58.59.563 1.528-.038 2.097a1.535 1.535 0 0 1-2.116-.014l-.024-.023L.424 7.513a1.462 1.462 0 0 1 .038-2.097 1.535 1.535 0 0 1 2.116.014zm26.96-.014c.593.561.617 1.483.06 2.073l-.022.024-3.974 4.034c-.58.59-1.538.606-2.14.037a1.462 1.462 0 0 1-.06-2.073l.022-.024 3.974-4.034a1.535 1.535 0 0 1 2.14-.037zM14.576 0C15.368.016 16 .71 16 1.556v.03l-.1 5.885c-.015.86-.676 1.544-1.476 1.529C13.632 8.984 13 8.29 13 7.444v-.03l.1-5.885C13.114.679 13.76 0 14.549 0h.027z" fill="#3458A1" fill-rule="nonzero"/>
</svg>
