<svg width="29" height="28" viewBox="0 0 29 28" xmlns="http://www.w3.org/2000/svg">
    <path d="M24.527 25.2c.77 0 1.392-.623 1.392-1.393V4.193c0-.77-.623-1.393-1.392-1.393H4.931c-.769 0-1.392.623-1.392 1.393v19.614c0 .77.623 1.393 1.392 1.393h9.798v-8.4h-1.4a1.4 1.4 0 0 1 0-2.8h1.4c0-2.656.3-4.33 1.544-5.723 1.23-1.379 2.669-1.977 4.051-1.977a1.4 1.4 0 0 1 0 2.8c-.611 0-1.284.28-1.965 1.042-.619.694-.832 1.886-.832 3.858h2.797a1.4 1.4 0 0 1 0 2.8h-2.797v8.4h7zM.742 23.807V4.193A4.19 4.19 0 0 1 4.932 0h19.595a4.19 4.19 0 0 1 4.19 4.193v19.614A4.19 4.19 0 0 1 24.527 28H4.931a4.19 4.19 0 0 1-4.19-4.193z" fill="#FFF" fill-rule="evenodd"/>
</svg>
