<svg width="29" height="28" viewBox="0 0 29 28" xmlns="http://www.w3.org/2000/svg">
    <path d="M7.172 0h14a6.99 6.99 0 0 1 6.988 6.993v14.014A6.99 6.99 0 0 1 21.173 28H7.172a6.99 6.99 0 0 1-6.987-6.993V6.993A6.99 6.99 0 0 1 7.172 0zm-4.19 21.007a4.191 4.191 0 0 0 4.19 4.193h14a4.191 4.191 0 0 0 4.19-4.193V6.993a4.191 4.191 0 0 0-4.19-4.193h-14a4.191 4.191 0 0 0-4.19 4.193v14.014zM7.18 14c0-3.866 3.13-7 6.993-7a6.997 6.997 0 0 1 6.994 7c0 3.866-3.131 7-6.994 7a6.997 6.997 0 0 1-6.993-7zm11.19 0c0-2.32-1.88-4.2-4.197-4.2A4.198 4.198 0 0 0 9.976 14c0 2.32 1.879 4.2 4.196 4.2a4.198 4.198 0 0 0 4.196-4.2zm2.797-5.6a1.4 1.4 0 1 1 .001-2.799 1.4 1.4 0 0 1-.001 2.799z" fill="#FFF" fill-rule="evenodd"/>
</svg>
