<svg width="29" height="28" viewBox="0 0 29 28" xmlns="http://www.w3.org/2000/svg">
    <path d="M.299 23.807V4.193A4.19 4.19 0 0 1 4.489 0h19.595a4.19 4.19 0 0 1 4.19 4.193v19.614A4.19 4.19 0 0 1 24.084 28H4.488a4.19 4.19 0 0 1-4.19-4.193zM4.489 2.8c-.77 0-1.393.623-1.393 1.393v19.614c0 .77.623 1.393 1.392 1.393h19.596c.77 0 1.392-.623 1.392-1.393V4.193c0-.77-.623-1.393-1.392-1.393H4.488zm2.804 9.804a1.398 1.398 0 1 1 2.797 0v6.992a1.398 1.398 0 1 1-2.797 0v-6.992zM8.69 9.8a1.4 1.4 0 1 1 .002-2.799A1.4 1.4 0 0 1 8.69 9.8zm6.295 5.95v3.85a1.4 1.4 0 1 1-2.798 0v-3.85a4.55 4.55 0 0 1 4.546-4.55 4.552 4.552 0 0 1 4.546 4.55v3.85a1.4 1.4 0 1 1-2.798 0v-3.85c0-.963-.785-1.75-1.748-1.75-.964 0-1.748.785-1.748 1.75z" fill="#FFF" fill-rule="nonzero"/>
</svg>
