<svg width="28" height="26" viewBox="0 0 28 26" xmlns="http://www.w3.org/2000/svg">
    <path d="M8.118 18.152c.9.61.793 1.97-.192 2.43-.37.172-3.651 1.06-3.651 1.06 1.307.77 3.14 1.173 5.536 1.173 7.688 0 13.297-5.652 13.303-14.111 0-.146-.006-.56-.006-.599 0-2.913-1.527-4.917-4.192-4.903-2.684.014-4.206 2.003-4.206 4.903l-.005 1.384a1.4 1.4 0 0 1-1.567 1.39 15.808 15.808 0 0 1-9.157-4.355s-.323 1.22-.402 1.78c.045.055.913.934 1.408 1.288.38.272.791.518 1.235.732a1.401 1.401 0 0 1-1.22 2.522c-.44-.213-.856-.45-1.25-.706.554 2.264 1.953 4.38 4.366 6.012zM26.526 3.216c1.411-.076 1.907.803 1.093 1.963l-1.722 2.456c.007.156.017.884.016 1.07-.006 10.002-6.864 16.911-16.102 16.911-4.562 0-7.51-1.192-9.54-3.976a1.401 1.401 0 0 1 .867-2.202l3.277-.708C.15 14.412-.245 8.28 2.28 3.277a1.399 1.399 0 0 1 2.362-.218 12.97 12.97 0 0 0 7.278 4.758C12.058 3.612 14.619.422 18.9.4c2.555-.013 4.5 1.122 5.685 2.92l1.94-.104z" fill="#FFF" fill-rule="evenodd"/>
</svg>
