<svg width="37" height="28" viewBox="0 0 37 28" xmlns="http://www.w3.org/2000/svg">
    <path d="M6.686.429S10.861 0 18.816 0c7.956 0 12.14.43 12.14.43 2.5.181 4.907 2.325 5.31 4.804 0 0 .734 2.729.734 8.416s-.735 8.43-.735 8.43c-.431 2.464-2.803 4.615-5.314 4.783 0 0-4.558.437-12.135.437-7.576 0-12.143-.438-12.143-.438-2.499-.177-4.903-2.317-5.307-4.796 0 0-.733-2.729-.733-8.416 0-5.688.735-8.43.735-8.43C1.8 2.755 4.178.6 6.686.428zm-2.68 7.27c-.213 1.613-.342 3.595-.342 5.951 0 2.356.128 4.335.34 5.945.12.912.353 1.983.353 1.983.174 1.068 1.41 2.179 2.605 2.265.122.011 2.21.162 3.1.209 2.56.134 5.494.215 8.754.215 3.261 0 6.194-.08 8.75-.215.89-.046 2.974-.197 3.096-.209 1.196-.08 2.426-1.19 2.617-2.285 0 0 .228-1.04.349-1.956.212-1.614.341-3.596.341-5.952s-.128-4.335-.34-5.945a28.635 28.635 0 0 0-.353-1.983c-.174-1.07-1.414-2.185-2.54-2.267-.196-.019-2.159-.165-3.026-.211-2.498-.132-5.467-.21-8.894-.21-3.427 0-6.394.078-8.889.21-.866.045-3.035.211-3.035.211-1.11.076-2.347 1.192-2.538 2.287 0 0-.228 1.04-.349 1.956zm11.033 2.4c.002-.842.6-1.192 1.325-.788l6.446 3.593c.73.407.724 1.072-.003 1.48l-6.464 3.626c-.732.41-1.323.06-1.321-.78l.017-7.131z" fill="#FFF" fill-rule="nonzero"/>
</svg>
