<svg width="290" height="116" viewBox="0 0 290 116" xmlns="http://www.w3.org/2000/svg">
    <path d="M74.148 44.68c13.26 13.658 12.786 35.127-.96 48.22l-.42.395-3.407 3.141-34.352-33.41a4.62 4.62 0 0 1-.007-6.652c1.858-1.815 4.858-1.842 6.75-.078l.076.071 27.41 26.658.172-.23c6.888-9.42 6.302-22.528-1.985-31.347l-.289-.303c-9.729-10.022-25.952-10.46-36.235-.978-10.18 9.387-10.722 24.978-1.292 35.013l.324.34c.236.248.482.491.739.73l.234.215 17.262 16.328 6.79-6.618c1.861-1.813 4.862-1.836 6.752-.071l.075.071a4.62 4.62 0 0 1 .073 6.58l-.073.073L48.27 116 24.244 93.273l-.193-.176a26.63 26.63 0 0 1-.968-.943l-.198-.206C9.627 78.29 10.1 56.821 23.847 43.728l.42-.395c14.156-13.053 36.489-12.45 49.881 1.346zm131.578-26.076 3.683.007c1.79.927 2.305 2.456 2.302 4.434-.04 17.398 0 34.761-.03 52.141 0 9.381-3.325 17.139-11.575 21.894-8.251 4.755-16.807 4.793-25.06.147-8-4.503-11.66-11.858-11.844-21.038-.144-7.231 1.609-13.781 6.847-19.028 8.445-8.46 23.777-8.93 32.728-1.023l.697.624v-2.111c0-10.473.02-20.949-.02-31.422 0-1.985.368-3.663 2.272-4.625zm-75.127 31.744c7.526.168 14.057 2.637 18.913 8.798 3.583 4.547 4.8 9.931 4.86 15.631.023 2.336-1.156 3.349-3.677 3.362-6.056.031-12.115 0-18.175 0H114.42v.004c.862 8.798 5.982 13.884 14.211 14.375 5.067.302 9.693-.66 13.5-4.496 1.807-1.82 5.985-.587 6.911 1.848.515 1.353-.063 2.404-.93 3.396-3.375 3.846-7.686 5.838-12.552 6.868-9.83 2.03-20.335-1.717-25.335-9.433-4.455-6.868-5.31-14.492-3.435-22.434 2.673-11.333 11.828-18.2 23.81-17.919zm137.704-.746c1.46.458 2.18 1.684 1.703 3.216a39.489 39.489 0 0 1-1.475 3.846c-5.23 12.456-10.498 24.898-15.69 37.371-.947 2.322-2.418 3.361-4.914 3.361-2.601 0-4.57-.554-5.697-3.274l-5.553-13.314-11.172-26.604c-1.328-3.167-.3-4.744 3.064-4.775 3.365-.03 4.158.492 5.503 3.7l12.687 30.255c.225.572.487 1.13.851 2l6.715-16.126a7269.05 7269.05 0 0 0 6.79-16.333c1.311-3.142 3.933-4.348 7.188-3.323zm18.335.012c1.1.349 1.15 2.042 1.152 3.407l.005 10.068-.002 29.854c0 1.476 0 3.057-1.177 3.797-1.342.888-2.934.874-4.266-.038-.991-.67-1.147-1.92-1.168-3.208l-.003-40.177c0-1.55.019-3.389 1.319-3.8a6.901 6.901 0 0 1 4.14.097zM173.933 64.262c-2.37 3.363-3.05 7.276-3.02 11.363.017 9.515 4.893 15.845 13.188 17.147 8.594 1.333 15.763-2.8 17.969-10.813.767-2.779.911-5.855.773-8.766-.383-8.192-5.289-13.868-12.911-14.932-6.248-.872-11.988.273-15.999 6.001zm-44.845-6.2c-7.188.567-12.896 5.678-13.309 11.976h29.772c-1.673-8.104-7.978-12.63-16.463-11.975zm155.399-14.288c3.045 0 5.513-2.45 5.513-5.472 0-3.022-2.468-5.472-5.513-5.472s-5.514 2.45-5.514 5.472c0 3.022 2.469 5.472 5.514 5.472zM8.123 16.665l.073.072 12.52 12.614a4.547 4.547 0 0 1-.119 6.556c-1.869 1.755-4.832 1.728-6.667-.044l-.073-.072-12.52-12.614a4.547 4.547 0 0 1 .119-6.555c1.87-1.756 4.832-1.728 6.667.043zm86.352-.044a4.546 4.546 0 0 1 .19 6.483l-.07.073-12.52 12.614c-1.828 1.842-4.846 1.894-6.74.116a4.546 4.546 0 0 1-.19-6.483l.07-.073 12.519-12.614c1.828-1.842 4.847-1.894 6.741-.116zM47.115.001c2.619.049 4.709 2.241 4.71 4.917v.094l-.33 18.608c-.05 2.718-2.235 4.881-4.884 4.832-2.619-.049-4.709-2.242-4.71-4.917l.001-.094.33-18.608C42.28 2.146 44.417 0 47.024 0h.091z" fill="#3664B1" fill-rule="nonzero"/>
</svg>
