<svg width="70" height="71" viewBox="0 0 70 71" xmlns="http://www.w3.org/2000/svg" xmlns:xlink="http://www.w3.org/1999/xlink">
    <defs>
        <filter x="-46.6%" y="-39.8%" width="197.7%" height="197.7%" filterUnits="objectBoundingBox" id="2zefbnuspa">
            <feMorphology radius="2" operator="dilate" in="SourceAlpha" result="shadowSpreadOuter1"/>
            <feOffset dx="1" dy="4" in="shadowSpreadOuter1" result="shadowOffsetOuter1"/>
            <feGaussianBlur stdDeviation="4.5" in="shadowOffsetOuter1" result="shadowBlurOuter1"/>
            <feColorMatrix values="0 0 0 0 0 0 0 0 0 0 0 0 0 0 0 0 0 0 0.05 0" in="shadowBlurOuter1"/>
        </filter>
        <rect id="w7iou7klab" x="0" y="0" width="44" height="44" rx="8"/>
    </defs>
    <g fill="none" fill-rule="evenodd">
        <g transform="translate(12 9.961)">
            <use fill="#000" filter="url(#2zefbnuspa)" xlink:href="#w7iou7klab"/>
            <use fill="#FFF" xlink:href="#w7iou7klab"/>
        </g>
        <path d="M37.375 20.961c2.54 0 4.6 2.027 4.6 4.528 0 .952-.173 2.272-.574 3.542 1.39.507 2.47 1.326 3.246 2.41C45.62 32.8 46 34.377 46 35.91c0 .419-.228.804-.594 1.007-.448.247-1.224.6-2.265.947-.765.255-1.555.465-2.366.62.41.9.625 1.815.625 2.6 0 .445-.256.85-.657 1.04-.506.24-1.38.585-2.538.927-1.925.57-3.955.911-6.005.911s-4.08-.342-6.005-.91c-1.158-.343-2.032-.688-2.538-.928a1.15 1.15 0 0 1-.657-1.04c0-1.394.661-3.176 1.89-4.569a8.038 8.038 0 0 1 2.86-2.062c-.508-1.525-.725-3.143-.725-4.292a5.175 5.175 0 0 1 5.774-5.14c.239-2.28 2.196-4.059 4.576-4.059zm-.726 13.494a8.07 8.07 0 0 1 2.726 1.92 15.719 15.719 0 0 0 4.286-1.171c-.095-.861-.372-1.709-.883-2.423-.53-.74-1.29-1.305-2.331-1.651-.719 1.112-1.721 1.905-3.072 1.905-.113 0-.224-.006-.333-.017-.104.477-.234.961-.393 1.437zm.726-3.72c1.086 0 2.3-2.64 2.3-5.246 0-1.222-1.022-2.228-2.3-2.228-1.278 0-2.3 1.006-2.3 2.228 0 .125.003.25.008.374a5.17 5.17 0 0 1 2.292 4.297c0 .18-.005.373-.016.575h.016zm-10.76 7.3c-.631.716-1.047 1.58-1.222 2.32.437.167.924.333 1.454.49 1.728.51 3.544.817 5.353.817 1.809 0 3.625-.306 5.353-.817.53-.156 1.016-.322 1.452-.489-.176-.735-.592-1.597-1.22-2.311a5.782 5.782 0 0 0-2.091-1.5c-.81 1.304-1.95 2.24-3.494 2.24-1.545 0-2.685-.937-3.496-2.242a5.767 5.767 0 0 0-2.09 1.493zm5.585-1.55c1.43 0 2.875-3.19 2.875-6.325a2.875 2.875 0 0 0-5.75 0c0 3.135 1.444 6.324 2.875 6.324z" fill="#3458A1"/>
    </g>
</svg>
