<svg width="70" height="71" viewBox="0 0 70 71" xmlns="http://www.w3.org/2000/svg" xmlns:xlink="http://www.w3.org/1999/xlink">
    <defs>
        <filter x="-46.6%" y="-39.8%" width="197.7%" height="197.7%" filterUnits="objectBoundingBox" id="nihhgj61ra">
            <feMorphology radius="2" operator="dilate" in="SourceAlpha" result="shadowSpreadOuter1"/>
            <feOffset dx="1" dy="4" in="shadowSpreadOuter1" result="shadowOffsetOuter1"/>
            <feGaussianBlur stdDeviation="4.5" in="shadowOffsetOuter1" result="shadowBlurOuter1"/>
            <feColorMatrix values="0 0 0 0 0 0 0 0 0 0 0 0 0 0 0 0 0 0 0.05 0" in="shadowBlurOuter1"/>
        </filter>
        <rect id="zpzcf2k3bb" x="0" y="0" width="44" height="44" rx="8"/>
    </defs>
    <g fill="none" fill-rule="evenodd">
        <g transform="translate(12 9.961)">
            <use fill="#000" filter="url(#nihhgj61ra)" xlink:href="#zpzcf2k3bb"/>
            <use fill="#FFF" xlink:href="#zpzcf2k3bb"/>
        </g>
        <path d="m32.008 37.27-4.011 2.11.766-4.467c.112-.652-.138-1.424-.613-1.887l-3.245-3.163 4.484-.652c.655-.095 1.312-.571 1.606-1.167L33 23.984l2.004 4.06c.293.594.95 1.072 1.606 1.167l4.48.656-3.24 3.159c-.475.462-.726 1.233-.614 1.887l.776 4.471-4.02-2.113c-.587-.309-1.398-.31-1.985 0zm5.97 4.56c1.333.7 2.619-.232 2.364-1.717l-.955-5.569c.01.055 4.032-3.9 4.032-3.9 1.078-1.051.588-2.562-.903-2.779l-5.591-.812c.054.008-2.464-5.04-2.464-5.04-.666-1.35-2.255-1.351-2.922 0l-2.5 5.066c.024-.05-5.555.786-5.555.786-1.49.217-1.981 1.727-.903 2.779l4.046 3.943c-.04-.038-.969 5.526-.969 5.526-.254 1.484 1.03 2.418 2.364 1.717l5-2.629c-.048.026 4.956 2.63 4.956 2.63z" fill="#3458A1" fill-rule="nonzero"/>
    </g>
</svg>
