<svg width="70" height="71" viewBox="0 0 70 71" xmlns="http://www.w3.org/2000/svg" xmlns:xlink="http://www.w3.org/1999/xlink">
    <defs>
        <filter x="-46.6%" y="-39.8%" width="197.7%" height="197.7%" filterUnits="objectBoundingBox" id="i2wof556ma">
            <feMorphology radius="2" operator="dilate" in="SourceAlpha" result="shadowSpreadOuter1"/>
            <feOffset dx="1" dy="4" in="shadowSpreadOuter1" result="shadowOffsetOuter1"/>
            <feGaussianBlur stdDeviation="4.5" in="shadowOffsetOuter1" result="shadowBlurOuter1"/>
            <feColorMatrix values="0 0 0 0 0 0 0 0 0 0 0 0 0 0 0 0 0 0 0.05 0" in="shadowBlurOuter1"/>
        </filter>
        <rect id="gz2ag7rnhb" x="0" y="0" width="44" height="44" rx="8"/>
    </defs>
    <g fill="none" fill-rule="evenodd">
        <g transform="translate(12 9.961)">
            <use fill="#000" filter="url(#i2wof556ma)" xlink:href="#gz2ag7rnhb"/>
            <use fill="#FFF" xlink:href="#gz2ag7rnhb"/>
        </g>
        <path d="m32.917 38.711-4.375 2.301.836-4.873c.122-.712-.15-1.554-.67-2.059l-3.54-3.45 4.893-.711c.714-.104 1.431-.624 1.751-1.273l2.19-4.43 2.186 4.43c.32.648 1.035 1.169 1.751 1.273l4.887.716-3.535 3.445c-.517.504-.791 1.346-.669 2.06l.847 4.877-4.386-2.306c-.64-.336-1.525-.337-2.166 0zm6.514 4.974c1.453.764 2.856-.253 2.578-1.873l-1.041-6.075c.01.06 4.398-4.255 4.398-4.255 1.176-1.146.641-2.795-.985-3.031l-6.1-.887c.06.009-2.687-5.498-2.687-5.498-.727-1.472-2.46-1.474-3.188 0l-2.727 5.527c.026-.054-6.06.858-6.06.858-1.625.236-2.162 1.884-.985 3.03l4.414 4.303c-.043-.042-1.057 6.028-1.057 6.028-.278 1.618 1.124 2.638 2.578 1.873l5.456-2.868c-.053.028 5.406 2.868 5.406 2.868z" fill="#3458A1" fill-rule="nonzero"/>
    </g>
</svg>
