<svg width="20" height="20" viewBox="0 0 20 20" xmlns="http://www.w3.org/2000/svg">
    <defs>
        <linearGradient x1="48.982%" y1="6.001%" x2="49.489%" y2="91.457%" id="f95u7ae6oa">
            <stop stop-color="#57D163" offset="0%"/>
            <stop stop-color="#23B33A" offset="100%"/>
        </linearGradient>
    </defs>
    <g fill="none" fill-rule="evenodd">
        <path d="m5.523 16.828.303.178a8.293 8.293 0 0 0 4.213 1.148h.003c4.562 0 8.274-3.695 8.276-8.237.001-2.2-.859-4.27-2.422-5.827a8.24 8.24 0 0 0-5.851-2.416c-4.566 0-8.278 3.695-8.28 8.237a8.19 8.19 0 0 0 1.265 4.383l.197.312-.836 3.04 3.132-.818zM0 20l1.413-5.135A9.859 9.859 0 0 1 .083 9.91C.087 4.446 4.554 0 10.043 0a9.92 9.92 0 0 1 7.044 2.907A9.827 9.827 0 0 1 20 9.917c-.002 5.465-4.47 9.911-9.958 9.911h-.005a9.988 9.988 0 0 1-4.758-1.206L0 20z" fill="#B3B3B3" fill-rule="nonzero"/>
        <path d="m0 20 1.413-5.135A9.858 9.858 0 0 1 .083 9.91C.087 4.446 4.554 0 10.043 0a9.92 9.92 0 0 1 7.044 2.907A9.827 9.827 0 0 1 20 9.917c-.002 5.465-4.47 9.911-9.958 9.911h-.005a9.988 9.988 0 0 1-4.758-1.206L0 20z" fill="#FFF" fill-rule="nonzero"/>
        <path d="M10.003 1.778c-4.535 0-8.224 3.687-8.225 8.218a8.198 8.198 0 0 0 1.257 4.374l.195.311-.83 3.033 3.112-.816.3.178a8.212 8.212 0 0 0 4.185 1.146H10c4.532 0 8.22-3.687 8.222-8.219a8.167 8.167 0 0 0-2.406-5.815 8.168 8.168 0 0 0-5.813-2.41z" fill="#000" fill-rule="nonzero"/>
        <path d="M10.003 1.778c-4.535 0-8.224 3.687-8.225 8.218a8.198 8.198 0 0 0 1.257 4.375l.195.31-.83 3.033 3.112-.816.3.178a8.212 8.212 0 0 0 4.185 1.146H10c4.532 0 8.22-3.687 8.222-8.219a8.168 8.168 0 0 0-2.406-5.815 8.168 8.168 0 0 0-5.813-2.41z" fill="url(#f95u7ae6oa)" fill-rule="nonzero"/>
        <path d="M7.488 5.767c-.189-.412-.387-.42-.566-.428l-.482-.006a.93.93 0 0 0-.67.31c-.231.248-.881.847-.881 2.065s.901 2.395 1.027 2.56c.125.166 1.74 2.746 4.296 3.738 2.125.825 2.557.66 3.018.62.462-.042 1.488-.6 1.698-1.177.21-.579.21-1.074.147-1.178-.063-.103-.23-.165-.483-.289-.251-.123-1.488-.722-1.718-.805-.23-.083-.398-.124-.566.124-.168.248-.65.805-.796.97-.147.166-.294.186-.545.063-.252-.124-1.062-.386-2.023-1.23-.748-.655-1.252-1.466-1.4-1.714-.146-.247-.015-.381.111-.505.113-.11.252-.289.378-.434.126-.144.167-.247.251-.412.084-.165.042-.31-.02-.434-.064-.124-.553-1.348-.776-1.838" fill="#FFF"/>
    </g>
</svg>
